<svg width="605" height="605" viewBox="0 0 605 605" fill="none" xmlns="http://www.w3.org/2000/svg">
<g clip-path="url(#clip0_1134_3250)">
<rect width="1861" height="1610" fill="white"/>
<path d="M102.338 344.03C76.7862 344.03 56 323.244 56 297.692C56 272.14 76.7862 251.354 102.338 251.354C104.289 251.354 106.211 251.294 108.117 251.157C127.299 249.917 144.818 242.489 158.721 230.87C158.857 230.749 159.008 230.628 159.145 230.507C162.881 227.346 166.346 223.881 169.507 220.145C169.628 220.008 169.749 219.857 169.871 219.721C181.489 205.818 188.917 188.3 190.157 169.117C190.278 167.196 190.354 165.274 190.354 163.338C190.354 137.786 211.14 117 236.692 117C262.244 117 283.03 137.786 283.03 163.338C283.03 165.289 283.09 167.211 283.227 169.117C284.467 188.3 291.895 205.818 303.514 219.721C303.635 219.857 303.756 220.008 303.877 220.145C307.038 223.881 310.503 227.346 314.24 230.507C314.376 230.628 314.527 230.749 314.663 230.87C328.551 242.489 346.085 249.917 365.267 251.157C367.188 251.279 369.11 251.354 371.046 251.354C396.598 251.354 417.384 272.14 417.384 297.692C417.384 323.244 396.598 344.03 371.046 344.03C345.495 344.03 324.708 323.244 324.708 297.692C324.708 295.741 324.648 293.819 324.512 291.913C323.271 272.73 315.843 255.212 304.225 241.309L303.861 240.885C300.7 237.149 297.235 233.684 293.499 230.523C293.363 230.402 293.211 230.28 293.075 230.159C279.172 218.541 261.654 211.113 242.471 209.872C240.55 209.751 238.628 209.676 236.692 209.676C234.756 209.676 232.819 209.736 230.913 209.872C211.73 211.113 194.212 218.541 180.309 230.159C180.173 230.28 180.022 230.402 179.885 230.523C176.149 233.684 172.684 237.149 169.522 240.885C169.401 241.022 169.28 241.173 169.159 241.309C157.541 255.197 150.113 272.73 148.872 291.913C148.751 293.819 148.676 295.756 148.676 297.692C148.676 323.244 127.89 344.03 102.338 344.03Z" fill="black"/>
<path d="M502.661 262.309C528.213 262.309 548.999 283.095 548.999 308.646C548.999 334.198 528.213 354.984 502.661 354.984C500.71 354.984 498.789 355.045 496.882 355.181C477.7 356.422 460.181 363.85 446.278 375.468C446.142 375.589 445.991 375.71 445.855 375.831C442.118 378.993 438.654 382.457 435.492 386.194C435.371 386.33 435.25 386.481 435.129 386.618C423.51 400.52 416.082 418.039 414.842 437.222C414.721 439.143 414.645 441.064 414.645 443.001C414.645 468.552 393.859 489.339 368.307 489.339C342.756 489.339 321.969 468.552 321.969 443.001C321.969 441.049 321.909 439.128 321.773 437.222C320.532 418.039 313.104 400.52 301.486 386.618C301.365 386.481 301.244 386.33 301.123 386.194C297.961 382.457 294.496 378.993 290.76 375.831C290.624 375.71 290.472 375.589 290.336 375.468C276.448 363.85 258.915 356.422 239.732 355.181C237.811 355.06 235.89 354.984 233.953 354.984C208.401 354.984 187.615 334.198 187.615 308.646C187.615 283.095 208.401 262.309 233.953 262.309C259.505 262.309 280.291 283.095 280.291 308.646C280.291 310.598 280.352 312.519 280.488 314.425C281.728 333.608 289.156 351.127 300.775 365.03L301.138 365.453C304.3 369.19 307.764 372.654 311.501 375.816C311.637 375.937 311.788 376.058 311.924 376.179C325.827 387.798 343.346 395.226 362.528 396.466C364.45 396.587 366.371 396.663 368.307 396.663C370.244 396.663 372.18 396.602 374.086 396.466C393.269 395.226 410.787 387.798 424.69 376.179C424.827 376.058 424.978 375.937 425.114 375.816C428.851 372.654 432.315 369.19 435.477 365.453C435.598 365.317 435.719 365.166 435.84 365.03C447.458 351.142 454.886 333.608 456.127 314.425C456.248 312.519 456.324 310.583 456.324 308.646C456.324 283.095 477.11 262.309 502.661 262.309Z" fill="black"/>
</g>
<rect x="0.5" y="0.5" width="604" height="604" stroke="black"/>
<defs>
<clipPath id="clip0_1134_3250">
<rect width="605" height="605" fill="white"/>
</clipPath>
</defs>
</svg>
