<svg xmlns="http://www.w3.org/2000/svg" viewBox="0 0 100 100">
  <rect width="100" height="100" fill="#FFFFFF"/>
  <path
    d="M78.3528 93.7646C77.2939 92.3528 81.2939 90.3528 85.9998 84.8234C88.3528 81.9999 91.0586 78.4705 93.2939 73.8822C95.5292 69.4116 97.5292 63.8822 97.7645 57.7646C98.1175 50.3528 96.5881 43.5293 91.5292 39.8822C84.941 35.1763 71.8822 44.7058 63.5292 50.4705C61.5292 51.8822 55.1763 56.3528 49.1763 55.6469C42.588 54.7058 39.5292 49.7646 39.0586 45.7646C38.1175 36.8234 49.4116 20.4705 45.7645 14.1175C44.3528 11.7646 40.1175 11.6469 35.0586 13.0587C28.5881 14.941 19.7645 20.3528 14.4704 27.5293C8.82334 35.294 11.4116 43.8822 12.7057 47.1763C15.4116 53.6469 19.8822 59.294 24.2351 64.1175C33.1763 73.7646 41.8822 80.4705 47.5292 85.4116C53.4116 90.2352 57.1763 92.3528 56.1175 93.7646C55.1763 95.1763 51.7645 92.7057 45.0586 88.941C38.4704 85.0587 28.941 79.1763 18.5881 69.6469C13.5292 64.8234 8.23511 59.0587 4.23511 50.8234C2.4704 47.0587 -2.58842 34.4705 5.99982 21.8822C8.94099 17.5293 12.588 13.8822 16.7057 10.7058C20.941 7.64693 38.4704 -3.88248 50.8233 3.88222C54.941 6.58811 56.3528 10.941 56.8233 12.8234C59.2939 24.2352 51.7645 35.6469 50.4704 42.5881C50.2351 44.1175 51.1763 45.294 53.4116 43.9999C58.4704 41.294 65.6469 36.5881 69.7645 34.2352C83.0586 26.7058 92.1175 26.3528 99.5292 34.1175C101.176 35.6469 107.412 43.9999 105.529 58.4705C104.47 65.9999 101.765 71.7646 98.5881 76.941C95.5292 81.7646 91.9998 85.294 88.941 87.8822C82.8233 92.941 79.0586 94.8234 78.3528 93.7646Z"
    fill="#2CA3E8"
    transform="scale(0.8) translate(10, 10)"
  />
</svg>
