<svg width="100" height="100" viewBox="0 0 100 100" fill="none" xmlns="http://www.w3.org/2000/svg">
<rect width="100" height="100" fill="#662246"/>
<path fill-rule="evenodd" clip-rule="evenodd" d="M69.2495 52.6645V54.9161C72.8249 56.1423 75.3893 59.5116 75.3893 63.489C75.3893 68.4521 71.3489 72.4795 66.3486 72.5236H60.7146C55.6754 72.5236 51.5905 68.4773 51.5905 63.4867V45.1558C55.5829 45.1558 57.5369 45.1558 62.3549 45.1558V68.0951H64.5276V45.1558C64.6685 45.1558 67.2187 45.1558 67.2187 45.1558C69.7285 45.1558 72.0736 46.1594 73.7825 47.9055L75.3425 46.4074C73.228 44.2474 70.3221 43.0039 67.2187 43.0039C67.2187 43.0039 55.1097 43.0039 49.4186 43.0039L49.418 63.4867C49.418 69.666 54.4758 74.6755 60.7146 74.6755C60.7146 74.6755 66.3833 74.6747 66.4009 74.6743C72.5768 74.6023 77.5619 69.6229 77.5619 63.489C77.5619 58.3113 74.0432 53.9618 69.2495 52.6645Z" fill="#FFFFFE"/>
<path fill-rule="evenodd" clip-rule="evenodd" d="M27.4641 45.1402C28.1134 45.1402 28.1134 45.1402 30.3407 45.1402C33.4976 45.1402 33.6885 45.1402 38.9377 45.1402C37.4607 46.722 36.6164 49.1013 36.6164 52.3626C36.6164 55.8105 36.6164 55.8105 36.6164 59.5817C36.6164 61.5281 36.6164 61.5281 36.6164 63.43C36.6164 67.4597 36.6164 67.4597 36.6164 70.5836C36.6164 71.7178 36.6164 71.8662 36.6164 72.4778L36.5082 72.4661C29.5972 71.8626 24.1728 66.0849 24.1728 59.0352V48.2258C24.1728 46.522 25.5656 45.1418 27.2864 45.1402H27.305C27.3493 45.1402 27.3493 45.1402 27.4641 45.1402ZM27.2864 42.9887C24.3655 42.9899 22 45.3337 22 48.2258V59.0352C22 67.6721 29.0288 74.6765 37.7027 74.6765C38.3028 74.6765 38.7892 74.1947 38.7892 73.6006C38.7892 73.4549 38.7892 55.8105 38.7892 52.3626C38.7892 49.0634 39.7252 47.0588 41.2441 45.9747C41.758 45.6077 42.3097 45.3712 42.8605 45.2402C43.0504 45.195 43.2245 45.1662 43.3766 45.1511C43.4261 45.1456 43.4681 45.1426 43.5018 45.141C43.5162 45.1402 43.5208 45.1402 43.515 45.1402C44.4699 45.1402 45.3494 45.1402 46.1596 45.1402V42.9883C45.3494 42.9883 27.2918 42.9883 27.2888 42.9883L27.2864 42.9887Z" fill="#FFFFFE"/>
<path fill-rule="evenodd" clip-rule="evenodd" d="M51.6452 26.2884H58.4132C60.1346 26.2884 61.529 27.6698 61.529 29.3744V38.2596H63.7014V29.3744C63.7014 26.4815 61.3345 24.1367 58.4132 24.1367H50.5589C49.9591 24.1367 49.4727 24.6183 49.4727 25.2125V38.2596H51.6452V26.2884Z" fill="#FFFFFE"/>
<path fill-rule="evenodd" clip-rule="evenodd" d="M36.962 26.1517H37.8508V32.4223C37.8508 34.6838 36.0004 36.5162 33.717 36.5162H25.4592C26.0074 30.7026 30.9468 26.1517 36.962 26.1517ZM24.3207 38.6682H33.717C37.2003 38.6682 40.0234 35.8721 40.0234 32.4223V25.076C40.0234 24.4814 39.5371 24 38.9371 24H36.962C29.3805 24 23.2344 30.0851 23.2344 37.5922C23.2344 38.1863 23.7208 38.6682 24.3207 38.6682Z" fill="#FFFFFE"/>
</svg>
